<svg id="Ebene_1" data-name="Ebene 1" xmlns="http://www.w3.org/2000/svg" viewBox="0 0 166.46 118.26"><defs><style>.cls-1{fill:#1d1d1b;}</style></defs><path class="cls-1" d="M158,71.86c-4.24-7.77-8.66-13.21-16.83-21.83,0,0-35.14-37-63.23-43.11C36.88-2,.61,34.69,10.78,74.4c8,31.43,49.75,46.22,75.9,26.93,12.21-9,16.69-25.69,10.79-40.18-5.4-13.25-18-20.93-31.75-19.3-12.8,1.52-21.24,12.17-18.83,24,1.36,6.71,5.5,11.06,12.37,12.25,4.22.73,7.91,0,11.31-3.21A11.92,11.92,0,0,1,54,64,12,12,0,0,1,64.26,52.1c9.87-1.88,21.06,6.33,22.58,17.48,2,14.84-8.69,26.32-24.88,25.86-14.14-.4-25.44-6.26-31.44-19.7a33.68,33.68,0,0,1-2.4-17.42,26.24,26.24,0,0,1,1-5.33,37.89,37.89,0,0,1,1.45-4.53c4.33-11.82,15.3-29.61,41.76-26.9,1.16.09,2.35.2,3.57.38A44.32,44.32,0,0,1,84,23.88c1.16.34,3.86,1.47,4.15,1.59,17.88,7.31,42.36,27.42,57.49,45.49,7.24,8.65,6.27,14-3.49,19.46C135.24,94.31,102.39,110,102.39,110s40.12-8.4,51.25-17.65c6.57-5.45,8.48-12.83,4.32-20.45"/></svg>