<svg id="Ebene_1" data-name="Ebene 1" xmlns="http://www.w3.org/2000/svg" viewBox="0 0 465.14 118.26"><defs><style>.cls-1{fill:#1d1d1b;}</style></defs><path class="cls-1" d="M455.41,30.23H421.36V78.46h12.72V58.14h9.17L448,47.46H434.08v-5.2h15.84ZM395,46.87l3.45,11.93h-6.84Zm6.05-16.64H389L371.35,78.46h13.06l3.35-9h14.56l3.36,9h13.08Zm-60.73,0H327.59V78.46h12.76V58.14H355.8V78.46h12.73V30.23H355.8V47.46H340.35Zm-34.65,49q10.91,0,17.42-5.52l-6.77-11.21a15.94,15.94,0,0,1-10.49,4,11.74,11.74,0,0,1-11.8-12.13,11.49,11.49,0,0,1,3.57-8.78,11.66,11.66,0,0,1,8.23-3.35,16.82,16.82,0,0,1,10.49,3.65L323.12,35q-6.51-5.52-17.42-5.53t-18.22,7.11a24,24,0,0,0-7.16,17.75,24,24,0,0,0,7.16,17.75q7.17,7.11,18.22,7.1"/><path class="cls-1" d="M204.71,33.26h17.16v45.3h3.22V33.26h17.13v-3H204.71Zm-47.52-3h-3V78.53h3.16V35.46l35.38,43.07h3V30.3h-3.16v43Zm-20.26,0h-3.22V78.5h3.22Zm-40.47,49a24.75,24.75,0,0,0,12.2-3.4q6.07-3.41,6.08-9.94V30.3h-3.19V65.41a8.61,8.61,0,0,1-5.19,8.15,21.84,21.84,0,0,1-9.9,2.63,17.86,17.86,0,0,1-10.7-3.14q-4.38-3.14-4.39-7.64V30.3H78.18V65.94q0,5.49,5.25,9.41a21.1,21.1,0,0,0,13,3.93M63.88,87.34A32,32,0,0,0,81.83,92.5l.43-2.93a30.34,30.34,0,0,1-17.13-4.89L52,75.7A27,27,0,0,0,56.68,72,23.74,23.74,0,0,0,64.05,54.4a23.81,23.81,0,0,0-7.38-17.58,24.51,24.51,0,0,0-17.84-7.28A24.53,24.53,0,0,0,21,36.82a23.79,23.79,0,0,0-7.4,17.58A23.77,23.77,0,0,0,21,72a24.53,24.53,0,0,0,17.85,7.28,25,25,0,0,0,10.16-2ZM38.83,76.13a21.27,21.27,0,0,1-15.52-6.35A20.86,20.86,0,0,1,16.9,54.4,20.93,20.93,0,0,1,23.31,39a21.22,21.22,0,0,1,15.52-6.38A21.14,21.14,0,0,1,54.31,39,20.9,20.9,0,0,1,60.73,54.4a20.83,20.83,0,0,1-6.42,15.38,21.2,21.2,0,0,1-15.48,6.35"/><path class="cls-1" d="M246.68,44.32q0,6.36,3.31,9.51a26.44,26.44,0,0,0,6.85,4.85l2.41,1.14A22.5,22.5,0,0,1,262,61.4a2.64,2.64,0,0,1,1.2,2.3,2.48,2.48,0,0,1-.94,2,3.68,3.68,0,0,1-2.38.77,9.55,9.55,0,0,1-4.33-1.26,17.89,17.89,0,0,1-4.46-3.3L244,71.35a22.87,22.87,0,0,0,7.33,5.49A20.59,20.59,0,0,0,260,78.71a17.83,17.83,0,0,0,11.84-4.14A13.2,13.2,0,0,0,276.8,64q0-6.45-3.48-9.87A23.83,23.83,0,0,0,266,49l-1.66-.74a23.53,23.53,0,0,1-3.14-1.68,2.65,2.65,0,0,1-1.39-2.3,2.47,2.47,0,0,1,.8-1.9,3.22,3.22,0,0,1,2.26-.73c1.24,0,3.18,1,5.83,3l7.49-9.83a19.61,19.61,0,0,0-13.32-5.41,16.34,16.34,0,0,0-11.61,4.25,14,14,0,0,0-4.54,10.6"/></svg>