<?xml version="1.0" encoding="UTF-8"?>
<svg width="512px" height="512px" viewBox="0 0 512 512" version="1.1" xmlns="http://www.w3.org/2000/svg" xmlns:xlink="http://www.w3.org/1999/xlink">
    <title>Smooth Corners</title>
    <defs>
        <linearGradient x1="50%" y1="96.2550981%" x2="51.7496495%" y2="-18.317022%" id="linearGradient-1">
            <stop stop-color="#FF8300" offset="0%"></stop>
            <stop stop-color="#FFF613" offset="100%"></stop>
        </linearGradient>
    </defs>
    <g id="Smooth-Corners" stroke="none" stroke-width="1" fill="none" fill-rule="evenodd">
        <path d="M146.141456,-5.90428975e-15 L365.858544,5.90428975e-15 C416.675112,-3.43056238e-15 435.102427,5.29105984 453.680205,15.2265641 C472.257983,25.1620684 486.837932,39.7420171 496.773436,58.3197949 C506.70894,76.8975727 512,95.3248882 512,146.141456 L512,365.858544 C512,416.675112 506.70894,435.102427 496.773436,453.680205 C486.837932,472.257983 472.257983,486.837932 453.680205,496.773436 C435.102427,506.70894 416.675112,512 365.858544,512 L146.141456,512 C95.3248882,512 76.8975727,506.70894 58.3197949,496.773436 C39.7420171,486.837932 25.1620684,472.257983 15.2265641,453.680205 C5.29105984,435.102427 2.28704159e-15,416.675112 -3.93619317e-15,365.858544 L3.93619317e-15,146.141456 C-2.28704159e-15,95.3248882 5.29105984,76.8975727 15.2265641,58.3197949 C25.1620684,39.7420171 39.7420171,25.1620684 58.3197949,15.2265641 C76.8975727,5.29105984 95.3248882,3.43056238e-15 146.141456,-5.90428975e-15 Z" id="Path" fill="#FFFFFF"></path>
        <g id="9list_LOGO_1024x1024" transform="translate(0.000000, 19.000000)" fill-rule="nonzero">
            <path d="M337.142466,0.690203048 C340.597391,0.690203048 366.688811,18.8730296 415.416726,55.2386827 C416.475587,56.1759418 419.570719,56.0822159 420.62958,55.1449568 L420.62958,55.1449568 L477.064896,13.156301 C484.884549,20.6805147 491.486538,29.434155 496.773436,39.3197949 C506.70894,57.8975727 512,76.3248882 512,127.141456 L512,346.858544 C512,397.675112 506.70894,416.102427 496.773436,434.680205 C486.837932,453.257983 472.257983,467.837932 453.680205,477.773436 C435.991553,487.233431 418.439305,492.482905 372.935729,492.963713 L139.064271,492.963713 C93.5606948,492.482905 76.0084472,487.233431 58.3197949,477.773436 C39.7420171,467.837932 25.1620684,453.257983 15.2265641,434.680205 C7.09121742,419.468429 2.06978086,404.357532 0.517234907,371.483782 L0.517160172,371.606119 C0.511081529,309.10624 0.400898171,222.465482 0.186610097,111.683844 L0.186825882,111.672474 C1.20550471,72.3158951 6.37134998,55.8776057 15.2265641,39.3197949 C20.4865104,29.4845505 27.0481736,20.7697936 34.8156092,13.2714687 L91.3238215,55.1449568 C92.3826825,56.0822159 95.3963637,56.1759418 96.5366755,55.2386827 C145.750506,18.8730296 171.841926,0.690203048 174.810936,0.690203048 C176.497431,0.690203048 188.111329,8.37244727 209.65263,23.7369357 L211.669254,25.1770156 C222.915765,33.2174615 236.721079,43.2380172 253.085196,55.2386827 C254.306959,56.2696677 257.727894,56.2696677 258.949657,55.2386827 C307.341633,18.8730296 333.405902,0.690203048 337.142466,0.690203048 Z" id="Combined-Shape" fill="url(#linearGradient-1)"></path>
            <g id="Group" transform="translate(140.000000, 119.000000)" fill="#FFFFFF">
                <path d="M144.480853,114.765659 C147.984201,96.7342358 133.257165,80.6849906 115.351166,81.0046967 C99.7807314,81.2604615 87,94.1126459 87,109.522479 C87,125.124136 99.0022097,137.400849 114.767274,137.97632 C128.910419,138.551791 141.820904,128.576961 144.480853,114.765659" id="Path"></path>
                <path d="M116.5,0 C52.2640884,0 0,52.0618767 0,116.049257 C0,146.888866 23.1069061,189.718095 48.209116,227.161612 C65.5875691,209.465703 93.908011,183.306534 112.251934,165.0977 C108.003867,164.07185 104.914365,163.366578 101.760497,162.533076 C78.3961326,156.249746 62.6267956,136.053328 62.4337017,112.330552 C62.2406077,88.2871972 77.3662983,67.7702015 100.344475,60.9739467 C123.387017,54.1776918 148.231768,63.730918 160.847238,84.2479137 C173.205249,104.3161 170.888122,130.47527 154.08895,147.594138 C128.536188,173.496845 97.3837017,204.144107 70.801105,230.495624 L58.5718232,242.228781 C83.8027624,277.877061 108.132597,305.639121 110.25663,308.011398 L116.435635,315 L122.74337,308.075514 C127.248895,303.202727 233,186.768777 233,116.049257 C233,52.0618767 180.735912,0 116.5,0 Z" id="Path"></path>
            </g>
        </g>
        <g id="Background"></g>
    </g>
</svg>