<?xml version="1.0" encoding="UTF-8"?>
<svg width="512px" height="512px" viewBox="0 0 512 512" version="1.1" xmlns="http://www.w3.org/2000/svg" xmlns:xlink="http://www.w3.org/1999/xlink">
    <title>Chatalyzer</title>
    <defs>
        <linearGradient x1="50%" y1="0%" x2="50%" y2="100%" id="linearGradient-1">
            <stop stop-color="#62FC7F" offset="0%"></stop>
            <stop stop-color="#00B825" offset="100%"></stop>
        </linearGradient>
    </defs>
    <g id="Chatalyzer" stroke="none" stroke-width="1" fill="none" fill-rule="evenodd">
        <rect id="Background" fill="url(#linearGradient-1)" x="0" y="0" width="512" height="512"></rect>
        <path d="M169.947266,442.583984 C174.927734,442.583984 174.927734,442.583984 178.995117,440.010742 C183.0625,437.4375 183.0625,437.4375 189.039062,431.958984 L248.970703,377.173828 L361.197266,377.339844 C385.933594,377.339844 385.933594,377.339844 402.867188,368.458008 C419.800781,359.576172 419.800781,359.576172 428.516602,342.642578 C437.232422,325.708984 437.232422,325.708984 437.232422,301.304688 L437.232422,174.136719 C437.232422,149.732422 437.232422,149.732422 428.516602,132.798828 C419.800781,115.865234 419.800781,115.865234 402.867188,106.983398 C385.933594,98.1015625 385.933594,98.1015625 361.197266,98.1015625 L147.369141,98.1015625 C122.632812,98.1015625 122.632812,98.1015625 105.699219,106.983398 C88.765625,115.865234 88.765625,115.865234 80.0498047,132.798828 C71.3339844,149.732422 71.3339844,149.732422 71.3339844,174.136719 L71.3339844,301.304688 C71.3339844,325.708984 71.3339844,325.708984 80.0498047,342.642578 C88.765625,359.576172 88.765625,359.576172 105.699219,368.375 C122.632812,377.173828 122.632812,377.173828 147.369141,377.173828 L155.171875,377.173828 L155.171875,425.484375 C155.171875,433.287109 155.171875,433.287109 158.990234,437.935547 C162.808594,442.583984 162.808594,442.583984 169.947266,442.583984 Z M243.59375,134.273438 L243.59375,234.371094 C243.59375,235.673177 243.740234,236.779948 244.033203,237.691406 C244.326172,238.602865 244.960938,239.514323 245.9375,240.425781 L245.9375,240.425781 L316.25,309.371094 C307.200521,316.988281 297.174479,322.847656 286.171875,326.949219 C275.169271,331.050781 263.808594,333.101562 252.089844,333.101562 C238.483073,333.101562 225.673828,330.497396 213.662109,325.289062 C201.650391,320.080729 191.054688,312.902995 181.875,303.755859 C172.695312,294.608724 165.501302,284.013021 160.292969,271.96875 C155.084635,259.924479 152.480469,247.098958 152.480469,233.492188 C152.480469,220.601562 154.824219,208.410807 159.511719,196.919922 C164.199219,185.429036 170.709635,175.191406 179.042969,166.207031 C187.376302,157.222656 197.044271,149.93099 208.046875,144.332031 C219.049479,138.733073 230.898438,135.380208 243.59375,134.273438 L243.59375,134.273438 Z M341.933594,191.011719 C345.058594,197.261719 347.467448,204.065104 349.160156,211.421875 C350.852865,218.778646 351.699219,226.135417 351.699219,233.492188 C351.699219,245.927083 349.404297,257.90625 344.814453,269.429688 C340.224609,280.953125 333.925781,291.109375 325.917969,299.898438 L325.917969,299.898438 L264.017698,238.756516 C263.88967,238.630057 263.779296,238.486898 263.689562,238.330914 C263.138768,237.37347 263.468423,236.150801 264.425867,235.600007 L264.425867,235.600007 Z M256.679688,133.980469 C267.03125,134.436198 277.154948,136.584635 287.050781,140.425781 C296.946615,144.266927 306.077474,149.540365 314.443359,156.246094 C322.809245,162.951823 329.824219,170.731771 335.488281,179.585938 L335.488281,179.585938 L259.676589,223.175312 C259.373289,223.3497 259.029548,223.441476 258.679688,223.441476 C257.575118,223.441476 256.679688,222.546045 256.679688,221.441476 L256.679688,221.441476 Z" id="Combined-Shape" fill="#FFFFFF"></path>
    </g>
</svg>