<?xml version="1.0" encoding="UTF-8" standalone="no"?>
<!DOCTYPE svg PUBLIC "-//W3C//DTD SVG 1.1//EN" "http://www.w3.org/Graphics/SVG/1.1/DTD/svg11.dtd">
<svg width="100%" height="100%" viewBox="0 0 152 105" version="1.1" xmlns="http://www.w3.org/2000/svg" xmlns:xlink="http://www.w3.org/1999/xlink" xml:space="preserve" xmlns:serif="http://www.serif.com/" style="fill-rule:evenodd;clip-rule:evenodd;stroke-linejoin:round;stroke-miterlimit:2;">
    <g transform="matrix(1,0,0,1,-9.05458,-5.5844)">
        <path d="M158,71.86C153.76,64.09 149.34,58.65 141.17,50.03C141.17,50.03 106.03,13.03 77.94,6.92C36.88,-2 0.61,34.69 10.78,74.4C18.78,105.83 60.53,120.62 86.68,101.33C98.89,92.33 103.37,75.64 97.47,61.15C92.07,47.9 79.47,40.22 65.72,41.85C52.92,43.37 44.48,54.02 46.89,65.85C48.25,72.56 52.39,76.91 59.26,78.1C63.48,78.83 67.17,78.1 70.57,74.89C69.099,75.513 67.517,75.835 65.92,75.835C59.413,75.835 54.047,70.507 54,64C53.987,58.061 58.384,52.961 64.26,52.1C74.13,50.22 85.32,58.43 86.84,69.58C88.84,84.42 78.15,95.9 61.96,95.44C47.82,95.04 36.52,89.18 30.52,75.74C28.192,70.249 27.363,64.236 28.12,58.32C28.268,56.514 28.603,54.727 29.12,52.99C29.508,51.451 29.992,49.938 30.57,48.46C34.9,36.64 45.87,18.85 72.33,21.56C73.49,21.65 74.68,21.76 75.9,21.94C78.655,22.331 81.367,22.98 84,23.88C85.16,24.22 87.86,25.35 88.15,25.47C106.03,32.78 130.51,52.89 145.64,70.96C152.88,79.61 151.91,84.96 142.15,90.42C135.24,94.31 102.39,110 102.39,110C102.39,110 142.51,101.6 153.64,92.35C160.21,86.9 162.12,79.52 157.96,71.9" style="fill:white;fill-rule:nonzero;"/>
    </g>
</svg>
