<?xml version="1.0" encoding="UTF-8"?>
<svg width="512px" height="512px" viewBox="0 0 512 512" version="1.1" xmlns="http://www.w3.org/2000/svg" xmlns:xlink="http://www.w3.org/1999/xlink">
    <title>Icon</title>
    <defs>
        <linearGradient x1="17.7767344%" y1="100%" x2="80.9829409%" y2="0%" id="linearGradient-1">
            <stop stop-color="#E53B5F" offset="0%"></stop>
            <stop stop-color="#FF6B01" offset="100%"></stop>
        </linearGradient>
        <filter x="-3.1%" y="-7.9%" width="106.2%" height="115.9%" filterUnits="objectBoundingBox" id="filter-2">
            <feOffset dx="0" dy="2" in="SourceAlpha" result="shadowOffsetOuter1"></feOffset>
            <feGaussianBlur stdDeviation="2" in="shadowOffsetOuter1" result="shadowBlurOuter1"></feGaussianBlur>
            <feColorMatrix values="0 0 0 0 0   0 0 0 0 0   0 0 0 0 0  0 0 0 0.202797203 0" type="matrix" in="shadowBlurOuter1" result="shadowMatrixOuter1"></feColorMatrix>
            <feMerge>
                <feMergeNode in="shadowMatrixOuter1"></feMergeNode>
                <feMergeNode in="SourceGraphic"></feMergeNode>
            </feMerge>
        </filter>
        <filter x="-4.6%" y="-5.0%" width="109.2%" height="110.0%" filterUnits="objectBoundingBox" id="filter-3">
            <feOffset dx="0" dy="2" in="SourceAlpha" result="shadowOffsetOuter1"></feOffset>
            <feGaussianBlur stdDeviation="2" in="shadowOffsetOuter1" result="shadowBlurOuter1"></feGaussianBlur>
            <feColorMatrix values="0 0 0 0 0   0 0 0 0 0   0 0 0 0 0  0 0 0 0.202797203 0" type="matrix" in="shadowBlurOuter1" result="shadowMatrixOuter1"></feColorMatrix>
            <feMerge>
                <feMergeNode in="shadowMatrixOuter1"></feMergeNode>
                <feMergeNode in="SourceGraphic"></feMergeNode>
            </feMerge>
        </filter>
    </defs>
    <g id="Icon" stroke="none" stroke-width="1" fill="none" fill-rule="evenodd">
        <rect id="Background" fill="url(#linearGradient-1)" x="0" y="0" width="512" height="512"></rect>
        <g id="Keyboard" transform="translate(39.095808, 235.647235)" fill="#FFFFFF">
            <rect id="Rectangle" fill-opacity="0.412587413" x="0.904191617" y="0.352765321" width="431" height="196" rx="36"></rect>
            <g id="All-Keys" filter="url(#filter-2)" transform="translate(23.904192, 18.489537)" fill-rule="nonzero">
                <path d="M22.9511925,44.8632287 C21.1453134,44.8632287 19.4858569,44.1795439 18.1192457,42.8610089 L2.94009983,27.6246049 C0.353300055,25.0363697 0.353300055,20.6900877 2.94009983,18.1018525 L18.1680532,2.86544846 C19.4370494,1.59574812 21.1453134,0.8632287 23,0.8632287 C24.8546866,0.8632287 26.4653356,1.54691349 27.8319468,2.86544846 L43.0599002,18.1018525 C45.6466999,20.6900877 45.6466999,25.0363697 43.0599002,27.6246049 L27.8319468,42.8610089 C26.416528,44.1795439 24.8058791,44.8632287 22.9511925,44.8632287 Z" id="Path"></path>
                <path d="M211.210667,11.9607897 L193.993333,2.05835065 C193.993333,2.05835065 193.993333,2.05835065 193.894667,1.96078968 C193.697333,1.8632287 193.598667,1.8632287 193.401333,1.8632287 C193.204,1.8632287 193.006667,1.8632287 192.908,1.96078968 L175.493333,11.9607897 L175.493333,11.9607897 C175.493333,11.9607897 175.493333,11.9607897 175.394667,11.9607897 C175.394667,11.9607897 175.394667,11.9607897 175.296,12.0583507 C175.296,12.0583507 175.296,12.0583507 175.197333,12.1559116 C175.197333,12.1559116 175.197333,12.1559116 175.098667,12.2534726 C175.098667,12.2534726 175.098667,12.2534726 175,12.3510336 C175,12.3510336 175,12.3510336 175,12.4485946 L175,12.5461555 C175,12.5461555 175,12.5461555 175,12.6437165 L175,12.7412775 L175,12.8388385 L175,12.9363994 C175,12.9363994 175,12.9363994 175,13.0339604 C175,13.0339604 175,13.0339604 175,13.1315214 L175,33.0339604 L175,33.1315214 C175,33.2290824 175,33.2290824 175,33.2290824 L175,33.3266433 C175,33.3266433 175,33.4242043 175.098667,33.4242043 C175.098667,33.4242043 175.098667,33.5217653 175.197333,33.5217653 L175.296,33.6193263 L175.394667,33.7168872 L175.493333,33.8144482 L192.908,43.7656677 C192.908,43.7656677 192.908,43.7656677 193.006667,43.7656677 C193.006667,43.7656677 193.105333,43.7656677 193.204,43.8632287 C193.204,43.8632287 193.204,43.8632287 193.302667,43.8632287 C193.401333,43.8632287 193.401333,43.8632287 193.5,43.8632287 L193.5,43.8632287 L193.5,43.8632287 C193.598667,43.8632287 193.598667,43.8632287 193.697333,43.8632287 L193.796,43.8632287 C193.894667,43.8632287 193.894667,43.8632287 193.993333,43.7656677 C193.993333,43.7656677 193.993333,43.7656677 194.092,43.7656677 L211.506667,33.7656677 C211.605333,33.7656677 211.605333,33.6681067 211.605333,33.6681067 C211.605333,33.6681067 211.704,33.6681067 211.704,33.5705458 L211.802667,33.4729848 C211.802667,33.4729848 211.802667,33.3754238 211.901333,33.3754238 C211.901333,33.3754238 211.901333,33.2778628 212,33.2778628 L212,33.1803019 L212,33.0827409 L212,33.0339604 L212,13.1315214 L212,13.1315214 L212,13.1315214 C211.802667,12.497375 211.605333,12.1071311 211.210667,11.9607897 Z" id="Path"></path>
                <circle id="Oval" cx="23" cy="129.863229" r="21"></circle>
                <g id="Group" transform="translate(0.000000, 0.863229)">
                    <path d="M263.96056,42.6143892 L233.936892,42.6143892 C230.171709,42.6143892 227.188902,39.6338768 227.188902,35.8715907 L227.188902,7.58115338 C227.188902,3.81886724 230.171709,0.83835485 233.936892,0.83835485 L263.96056,0.83835485 C267.725743,0.83835485 270.70855,3.91658896 270.70855,7.58115338 L270.70855,35.8227298 C270.70855,39.4872942 267.725743,42.6143892 263.96056,42.6143892 Z" id="Path"></path>
                    <path d="M377.405037,42.6143892 L347.38137,42.6143892 C343.616186,42.6143892 340.633379,39.6338768 340.633379,35.8715907 L340.633379,7.58115338 C340.633379,3.81886724 343.616186,0.83835485 347.38137,0.83835485 L377.405037,0.83835485 C381.17022,0.83835485 384.153028,3.91658896 384.153028,7.58115338 L384.153028,35.8227298 C384.250825,39.4872942 381.17022,42.6143892 377.405037,42.6143892 Z" id="Path"></path>
                    <path d="M36.9738078,96.2636123 L6.95014001,96.2636123 C3.18495692,96.2636123 0.202149536,93.2830999 0.202149536,89.5208138 L0.202149536,61.2792373 C0.202149536,57.5169512 3.18495692,54.5364388 6.95014001,54.5364388 L36.9738078,54.5364388 C40.7389909,54.5364388 43.7217982,57.6146729 43.7217982,61.2792373 L43.7217982,89.5208138 C43.7217982,93.1853782 40.7389909,96.2636123 36.9738078,96.2636123 Z" id="Path"></path>
                    <path d="M150.418285,42.6143892 L120.394618,42.6143892 C116.629434,42.6143892 113.646627,39.6338768 113.646627,35.8715907 L113.646627,7.58115338 C113.646627,3.81886724 116.629434,0.83835485 120.394618,0.83835485 L150.418285,0.83835485 C154.183468,0.83835485 157.166276,3.91658896 157.166276,7.58115338 L157.166276,35.8227298 C157.264073,39.4872942 154.183468,42.6143892 150.418285,42.6143892 L150.418285,42.6143892 Z" id="Path"></path>
                    <path d="M377.973808,149.961696 L347.95014,149.961696 C344.184957,149.961696 341.20215,146.981184 341.20215,143.218898 L341.20215,114.977321 C341.20215,111.215035 344.184957,108.234523 347.95014,108.234523 L377.973808,108.234523 C381.738991,108.234523 384.721798,111.312757 384.721798,114.977321 L384.721798,143.218898 C384.721798,146.981184 381.738991,149.961696 377.973808,149.961696 Z" id="Path"></path>
                    <path d="M321.171783,96.2636123 L291.148116,96.2636123 C287.382933,96.2636123 284.400125,93.2830999 284.400125,89.5208138 L284.400125,61.2792373 C284.400125,57.5169512 287.382933,54.5364388 291.148116,54.5364388 L321.171783,54.5364388 C324.936966,54.5364388 327.919774,57.6146729 327.919774,61.2792373 L327.919774,89.5208138 C328.017571,93.1853782 324.936966,96.2636123 321.171783,96.2636123 Z" id="Path"></path>
                    <path d="M263.96056,96.2636123 L233.936892,96.2636123 C230.171709,96.2636123 227.188902,93.2830999 227.188902,89.5208138 L227.188902,61.2792373 C227.188902,57.5169512 230.171709,54.5364388 233.936892,54.5364388 L263.96056,54.5364388 C267.725743,54.5364388 270.70855,57.6146729 270.70855,61.2792373 L270.70855,89.5208138 C270.70855,93.1853782 267.725743,96.2636123 263.96056,96.2636123 Z" id="Path"></path>
                    <path d="M93.0114678,96.2636123 L62.9878,96.2636123 C59.2226169,96.2636123 56.2398096,93.2830999 56.2398096,89.5208138 L56.2398096,61.2792373 C56.2398096,57.5169512 59.2226169,54.5364388 62.9878,54.5364388 L93.0114678,54.5364388 C96.7766509,54.5364388 99.7594583,57.6146729 99.7594583,61.2792373 L99.7594583,89.5208138 C99.9061537,93.1853782 96.7766509,96.2636123 93.0114678,96.2636123 Z" id="Path"></path>
                    <path d="M377.405037,96.2636123 L347.38137,96.2636123 C343.616186,96.2636123 340.633379,93.2830999 340.633379,89.5208138 L340.633379,61.2792373 C340.633379,57.5169512 343.616186,54.5364388 347.38137,54.5364388 L377.405037,54.5364388 C381.17022,54.5364388 384.153028,57.6146729 384.153028,61.2792373 L384.153028,89.5208138 C384.250825,93.1853782 381.17022,96.2636123 377.405037,96.2636123 Z" id="Path"></path>
                    <path d="M150.418285,96.2636123 L120.394618,96.2636123 C116.629434,96.2636123 113.646627,93.2830999 113.646627,89.5208138 L113.646627,61.2792373 C113.646627,57.5169512 116.629434,54.5364388 120.394618,54.5364388 L150.418285,54.5364388 C154.183468,54.5364388 157.166276,57.6146729 157.166276,61.2792373 L157.166276,89.5208138 C157.264073,93.1853782 154.183468,96.2636123 150.418285,96.2636123 Z" id="Path"></path>
                    <path d="M207.332584,98 L177.667416,98 C173.947191,98 171,95 171,91.2131148 L171,62.7868852 C171,59 173.947191,56 177.667416,56 L207.332584,56 C211.052809,56 214,59.0983607 214,62.7868852 L214,91.2131148 C214,95 210.95618,98 207.332584,98 Z" id="Path"></path>
                </g>
                <path d="M321.405037,150.824925 L64.541313,150.824925 C60.7761299,150.824925 57.7933225,147.844413 57.7933225,144.082126 L57.7933225,115.84055 C57.7933225,112.078264 60.7761299,109.097751 64.541313,109.097751 L321.502834,109.097751 C325.268017,109.097751 328.250825,112.175986 328.250825,115.84055 L328.250825,144.082126 C328.250825,147.844413 325.17022,150.824925 321.405037,150.824925 Z" id="Space"></path>
            </g>
        </g>
        <g id="PenAndPencil" filter="url(#filter-3)" transform="translate(124.544433, 56.331839)" fill="#FFFFFF" fill-rule="nonzero">
            <path d="M205.608737,145.673268 C211.134267,142.486866 213.9923,139.585812 214.992612,136.11406 C216.135825,132.452075 215.183147,128.314507 211.896409,122.702633 C199.416333,101.396537 187.174426,79.3770666 175.456491,58.0709702 C170.312032,48.6068783 164.834136,38.7623204 159.499142,29.1555537 C159.118071,28.4897382 158.737,27.8239227 158.355929,27.1105489 C152.925666,17.265991 143.779961,0.668161435 131.299885,0.668161435 L131.299885,0.668161435 C127.346273,0.668161435 123.487929,2.38025847 119.724852,5.75689428 C116.438114,8.65794758 114.628027,12.3199329 114.485125,16.6477337 C114.104054,23.1156558 117.48606,29.773811 120.105923,34.1967283 C128.298951,48.3690871 136.730147,62.6365623 144.827907,76.5235716 C157.117448,97.449202 169.835694,119.135764 182.125235,140.489419 C186.840989,148.764555 191.413841,149.668161 194.414776,149.668161 C197.41571,149.573045 200.797716,148.479205 205.608737,145.673268 Z" id="Path"></path>
            <path d="M260.971261,205.671798 C259.340069,192.813616 254.158638,182.177252 246.7703,176.646343 C244.419465,174.897252 240.533392,173.668161 237.031128,173.668161 L237.031128,173.668161 C235.160055,173.668161 233.528864,174.046343 232.185529,174.802707 L231.513862,175.180889 C224.125525,179.388161 214.962067,184.588161 214.482305,190.922707 C214.2904,194.08998 214.866114,202.882707 225.276954,214.984525 C230.554338,221.12998 237.031128,226.471798 243.268036,231.482707 C245.906728,233.60998 248.54542,235.784525 251.136136,238.006343 C251.615898,238.384525 252.191613,238.668161 252.767327,238.668161 C252.86328,238.668161 252.959232,238.668161 252.959232,238.668161 C253.630899,238.573616 254.302566,238.28998 254.686376,237.722707 C260.203641,230.868161 262.554476,218.624525 260.971261,205.671798 Z" id="Path"></path>
            <path d="M231.516645,171.931904 C232.928502,170.395916 233.540306,169.003927 233.446183,167.659937 C232.975564,160.939989 229.728294,154.700037 226.3869,148.172088 C225.069167,145.628108 223.704372,142.892129 222.480763,140.10815 C222.198392,139.436155 221.633649,138.956159 220.974783,138.764161 C220.692411,138.668161 220.504164,138.668161 220.221792,138.668161 C219.751173,138.668161 219.374678,138.764161 218.998183,138.956159 L191.702289,154.844036 C191.043422,155.228033 190.572803,155.900028 190.47868,156.620023 C190.384556,157.340017 190.572803,158.156011 191.137546,158.684007 C193.443579,161.227987 195.608425,163.867966 197.632087,166.363947 C202.291213,172.123903 206.620907,177.64386 212.503643,180.18784 C213.162509,180.475838 213.915499,180.668161 214.809675,180.668161 C219.798235,180.715836 228.269375,175.435877 231.516645,171.931904 Z" id="Path"></path>
            <g id="Group" transform="translate(0.455567, 28.668161)">
                <path d="M102.333179,43.8376833 L74.2045773,29.1775243 C73.8257409,28.9871326 73.3521954,28.8919368 72.87865,28.8919368 C72.6892318,28.8919368 72.4998136,28.9871326 72.3103954,28.9871326 C71.6474317,29.1775243 71.1738862,29.6535035 70.8897589,30.2246785 C55.4048216,61.5917071 15.2955191,146.934776 14.9166827,147.791538 C14.3484282,149.029084 14.8219736,150.409424 16.0531919,151.075795 L43.8029572,165.450366 C44.1817936,165.640758 44.6553391,165.735954 45.1288846,165.735954 C45.3183028,165.735954 45.507721,165.640758 45.6971392,165.640758 C46.3601029,165.450366 46.8336483,164.974387 47.1177756,164.308016 L103.469688,47.1219397 C103.943234,45.8843938 103.469688,44.5040542 102.333179,43.8376833 Z" id="Path"></path>
                <path d="M106.263607,1.47553549 C104.416779,0.618772946 102.143761,0.333185432 99.5392607,0.523577108 L99.5392607,0.523577108 C95.5141241,0.904360459 90.8733783,2.57028762 87.3217872,4.95018357 C82.8231051,8.0440483 76.1934683,20.5147031 75.4357956,21.9426406 C75.1516683,22.5138156 75.0569592,23.2753824 75.2463774,23.8941553 C75.4357956,24.5129282 75.909341,25.0365053 76.5723047,25.4172887 L104.606197,39.0302935 C104.985034,39.2206852 105.458579,39.315881 105.932125,39.315881 C106.595088,39.2206852 107.258052,38.9350977 107.684243,38.2687268 C112.088216,32.271389 115.639807,20.7050947 115.923934,13.9461902 C116.018644,11.4235005 114.976843,8.85321292 112.940598,6.42571905 C111.141125,4.2838127 108.726043,2.61788554 106.263607,1.47553549 Z" id="Path"></path>
                <path d="M39.3989842,171.257312 L34.9950113,169.02021 L12.4068917,157.453916 C12.0280553,157.263524 11.5545098,157.168328 11.0809643,157.168328 C10.796837,157.168328 10.5127097,157.263524 10.1338734,157.453916 C9.47090968,157.834699 8.90265509,158.50107 8.807946,159.215039 L6.96111861,169.638983 L0.331481839,205.765803 C0.142063645,206.908154 0.710318226,208.002906 1.84682739,208.478885 C2.22566377,208.669277 2.60450016,208.669277 3.07804564,208.669277 C4.02513661,208.574081 5.20900032,208.478885 18.6576921,196.103426 C26.7079653,188.678151 34.9003022,180.634102 40.2513661,175.065146 C40.8196207,174.493971 41.0090389,173.732404 40.9143298,172.923239 C40.582848,172.304466 40.0619479,171.638096 39.3989842,171.257312 Z" id="Path"></path>
            </g>
        </g>
    </g>
</svg>